<?xml version="1.0" encoding="UTF-8"?>
<svg xmlns="http://www.w3.org/2000/svg" xmlns:xlink="http://www.w3.org/1999/xlink" width="30px" height="30px" viewBox="0 0 30 30" version="1.1">
<g id="surface1">
<path style=" stroke:none;fill-rule:nonzero;fill:rgb(0%,0%,0%);fill-opacity:1;" d="M 14.96875 2.5 C 14.769531 2.507812 14.578125 2.578125 14.421875 2.703125 L 5.539062 9.699219 C 4.410156 10.589844 3.75 11.945312 3.75 13.382812 L 3.75 25.3125 C 3.75 26.164062 4.460938 26.875 5.3125 26.875 L 11.5625 26.875 C 12.414062 26.875 13.125 26.164062 13.125 25.3125 L 13.125 19.0625 C 13.125 18.878906 13.253906 18.75 13.4375 18.75 L 16.5625 18.75 C 16.746094 18.75 16.875 18.878906 16.875 19.0625 L 16.875 25.3125 C 16.875 26.164062 17.585938 26.875 18.4375 26.875 L 24.6875 26.875 C 25.539062 26.875 26.25 26.164062 26.25 25.3125 L 26.25 13.382812 C 26.25 11.945312 25.589844 10.589844 24.460938 9.699219 L 15.578125 2.703125 C 15.40625 2.566406 15.191406 2.492188 14.96875 2.5 Z M 15 4.632812 L 23.304688 11.171875 C 23.980469 11.707031 24.375 12.519531 24.375 13.382812 L 24.375 25 L 18.75 25 L 18.75 19.0625 C 18.75 17.867188 17.757812 16.875 16.5625 16.875 L 13.4375 16.875 C 12.242188 16.875 11.25 17.867188 11.25 19.0625 L 11.25 25 L 5.625 25 L 5.625 13.382812 C 5.625 12.519531 6.019531 11.707031 6.695312 11.171875 Z M 15 4.632812 "/>
</g>
</svg>
