<?xml version="1.0" encoding="UTF-8"?>
<svg xmlns="http://www.w3.org/2000/svg" xmlns:xlink="http://www.w3.org/1999/xlink" width="48px" height="48px" viewBox="0 0 48 48" version="1.1">
<g id="surface1">
<path style=" stroke:none;fill-rule:nonzero;fill:rgb(0%,0%,0%);fill-opacity:1;" d="M 20.160156 2.878906 C 11.15625 2.878906 3.839844 10.195312 3.839844 19.199219 C 3.839844 28.203125 11.15625 35.519531 20.160156 35.519531 C 23.722656 35.519531 27.015625 34.371094 29.699219 32.429688 L 42.328125 45.03125 L 45.03125 42.328125 L 32.550781 29.820312 C 35.003906 26.960938 36.480469 23.253906 36.480469 19.199219 C 36.480469 10.195312 29.164062 2.878906 20.160156 2.878906 Z M 20.160156 4.800781 C 28.125 4.800781 34.558594 11.234375 34.558594 19.199219 C 34.558594 27.164062 28.125 33.601562 20.160156 33.601562 C 12.195312 33.601562 5.761719 27.164062 5.761719 19.199219 C 5.761719 11.234375 12.195312 4.800781 20.160156 4.800781 Z M 20.160156 4.800781 "/>
</g>
</svg>
